<svg width="25" height="25" viewBox="0 0 25 25" fill="none" xmlns="http://www.w3.org/2000/svg">
<path d="M12.5 4.58333C8.13474 4.58333 4.58333 8.13474 4.58333 12.5C4.58333 16.8653 8.13474 20.4167 12.5 20.4167C16.8653 20.4167 20.4167 16.8653 20.4167 12.5C20.4167 8.13474 16.8653 4.58333 12.5 4.58333ZM12.5 18.75C11.2639 18.75 10.0555 18.3834 9.02769 17.6967C7.99988 17.0099 7.1988 16.0338 6.72575 14.8918C6.25271 13.7497 6.12893 12.4931 6.37009 11.2807C6.61125 10.0683 7.2065 8.95466 8.08058 8.08058C8.95466 7.2065 10.0683 6.61125 11.2807 6.37009C12.4931 6.12893 13.7497 6.25271 14.8918 6.72575C16.0338 7.1988 17.0099 7.99988 17.6967 9.02769C18.3834 10.0555 18.75 11.2639 18.75 12.5C18.7481 14.157 18.089 15.7456 16.9173 16.9173C15.7456 18.089 14.157 18.7481 12.5 18.75ZM11.6667 0H13.3333V2.5H11.6667V0ZM11.6667 22.5H13.3333V25H11.6667V22.5ZM22.5 11.6667H25V13.3333H22.5V11.6667ZM0 11.6667H2.5V13.3333H0V11.6667ZM19.4108 20.5893L20.5893 19.4108L22.2559 21.0774L21.0774 22.2559L19.4108 20.5893ZM2.74411 3.9226L3.92266 2.74406L5.58932 4.41073L4.41078 5.58927L2.74411 3.9226ZM2.74401 21.0776L4.41068 19.4109L5.58922 20.5893L3.92255 22.256L2.74401 21.0776ZM19.4108 4.41073L21.0774 2.74406L22.256 3.9226L20.5893 5.58927L19.4108 4.41073Z" fill="#1BD19C"/>
</svg>
